<svg version="1.1" id="Layer_1" xmlns="http://www.w3.org/2000/svg" xmlns:xlink="http://www.w3.org/1999/xlink" x="0px" y="0px"
	 width="100%" viewBox="0 0 966 906" enable-background="new 0 0 966 906" xml:space="preserve">
	 <style>:root {
		--my-color: grey;
	  }</style>

<path fill="var(--my-color)" opacity="1.000000" stroke="none" 
	d="
M128.849884,823.147217 
	C102.593857,794.775696 90.287636,761.174927 90.253143,723.271912 
	C90.068901,520.775208 90.149338,318.278381 90.182693,115.781578 
	C90.188354,81.368340 110.750038,54.940266 143.312881,47.590698 
	C148.778931,46.356991 154.529663,45.904274 160.149292,45.901314 
	C324.313324,45.814911 488.477417,45.812176 652.641479,45.847576 
	C686.389709,45.854855 711.930542,65.345039 720.298523,97.744164 
	C721.815857,103.618980 722.045105,109.940811 722.089417,116.061928 
	C722.276550,141.893494 722.168640,167.727203 722.168640,193.560120 
	C722.168640,195.196686 722.168640,196.833252 722.168640,198.999100 
	C724.281677,198.999100 726.056946,198.999100 727.832153,198.999100 
	C766.664856,198.999100 805.497559,198.979599 844.330261,199.004501 
	C884.181213,199.030075 913.742371,228.046722 913.777039,267.927917 
	C913.914612,426.258636 914.310852,584.591797 913.570374,742.919128 
	C913.317200,797.055420 887.209595,836.358826 837.672791,859.162048 
	C821.582947,866.568726 804.290833,869.162537 786.627869,869.244019 
	C784.295227,869.254761 781.962341,869.171997 779.629578,869.171936 
	C598.965759,869.168335 418.301941,869.142883 237.638138,869.194641 
	C208.263687,869.203064 180.761475,862.457764 156.298309,845.979553 
	C146.573257,839.428833 138.120178,830.989746 128.849884,823.147217 
M319.500061,103.166428 
	C266.510437,103.166428 213.520782,103.157593 160.531143,103.174667 
	C151.098068,103.177711 147.841766,106.384338 147.841187,115.733986 
	C147.828476,318.528748 147.831711,521.323486 147.831390,724.118225 
	C147.831375,736.930420 149.886551,749.382507 155.517853,760.947144 
	C172.144241,795.091858 200.016602,811.718811 237.567947,811.762939 
	C384.706421,811.935730 531.845215,811.833679 678.983887,811.833679 
	C680.565063,811.833679 682.146240,811.833618 683.689758,811.833618 
	C683.689758,811.002258 683.798035,810.630432 683.670227,810.378296 
	C683.220093,809.490601 682.696228,808.639648 682.187622,807.782288 
	C671.174011,789.217224 665.115540,769.182861 664.962097,747.564270 
	C664.711426,712.241394 664.619080,676.916687 664.626953,641.592773 
	C664.665710,466.961609 664.759827,292.330414 664.832397,117.699249 
	C664.837158,106.170441 661.856079,103.166885 650.437317,103.166817 
	C540.458252,103.166176 430.479187,103.166428 319.500061,103.166428 
M856.167786,439.500061 
	C856.167786,383.004669 856.169922,326.509308 856.165894,270.013916 
	C856.165161,259.292480 853.341858,256.496826 842.504822,256.495148 
	C804.341248,256.489197 766.177673,256.492828 728.014099,256.492859 
	C726.243774,256.492859 724.473511,256.492859 722.390137,256.492859 
	C722.390137,259.115662 722.390137,261.091187 722.390137,263.066711 
	C722.390137,389.889740 722.390381,516.712769 722.388306,643.535828 
	C722.388245,645.368591 722.347351,647.201355 722.345886,649.034119 
	C722.319702,681.861816 721.472839,714.714478 722.464355,747.511475 
	C723.983643,797.770569 779.066040,827.911194 822.504700,802.597046 
	C845.663940,789.100891 856.205200,768.121216 856.190308,741.475708 
	C856.134277,641.150513 856.167786,540.825317 856.167786,439.500061 
z"/>
<path fill="#FEFEFE" opacity="1.000000" stroke="none" 
	d="
M320.000092,103.166428 
	C430.479187,103.166428 540.458252,103.166176 650.437317,103.166817 
	C661.856079,103.166885 664.837158,106.170441 664.832397,117.699249 
	C664.759827,292.330414 664.665710,466.961609 664.626953,641.592773 
	C664.619080,676.916687 664.711426,712.241394 664.962097,747.564270 
	C665.115540,769.182861 671.174011,789.217224 682.187622,807.782288 
	C682.696228,808.639648 683.220093,809.490601 683.670227,810.378296 
	C683.798035,810.630432 683.689758,811.002258 683.689758,811.833618 
	C682.146240,811.833618 680.565063,811.833679 678.983887,811.833679 
	C531.845215,811.833679 384.706421,811.935730 237.567947,811.762939 
	C200.016602,811.718811 172.144241,795.091858 155.517853,760.947144 
	C149.886551,749.382507 147.831375,736.930420 147.831390,724.118225 
	C147.831711,521.323486 147.828476,318.528748 147.841187,115.733986 
	C147.841766,106.384338 151.098068,103.177711 160.531143,103.174667 
	C213.520782,103.157593 266.510437,103.166428 320.000092,103.166428 
M415.831604,228.500153 
	C415.390869,218.207397 416.452667,207.573303 414.207489,197.690475 
	C408.973083,174.649551 390.190186,160.969284 365.958221,160.857162 
	C342.464905,160.748459 318.970642,160.833481 295.476807,160.833466 
	C281.980347,160.833450 268.483246,160.753571 254.987549,160.854340 
	C238.965485,160.973969 225.497925,166.550446 215.398880,179.467529 
	C207.971848,188.966980 205.252945,199.902878 205.202744,211.627228 
	C205.092178,237.453323 205.088287,263.280579 205.201553,289.106628 
	C205.259933,302.420502 205.104782,315.771973 206.034515,329.037170 
	C207.590225,351.233856 227.350754,370.155426 249.617752,370.889435 
	C266.262573,371.438141 282.936462,371.164368 299.597351,371.152771 
	C323.756134,371.135956 347.916382,371.161896 372.072784,370.884308 
	C381.161743,370.779907 389.169952,367.090393 396.373627,361.640045 
	C410.201019,351.178192 415.940857,337.021912 415.867828,319.976257 
	C415.738647,289.818024 415.831604,259.658875 415.831604,228.500153 
M561.499878,486.164703 
	C567.994812,486.115997 574.501343,486.297668 580.982483,485.973907 
	C598.044556,485.121552 610.688599,467.379761 606.483337,450.793213 
	C603.542236,439.192932 592.664856,428.671539 575.944580,428.707703 
	C462.841095,428.952240 349.736816,428.834747 236.632782,428.841339 
	C234.968201,428.841431 233.301483,428.892700 231.639389,428.985168 
	C211.731796,430.092499 198.870560,453.342712 208.658340,470.648132 
	C214.909119,481.699890 224.481918,486.274658 237.179031,486.255859 
	C344.952454,486.096405 452.726227,486.164703 561.499878,486.164703 
M584.502319,600.351501 
	C603.779114,596.096924 610.688110,576.968750 605.528198,562.745361 
	C600.978455,550.204041 591.087097,543.843445 575.842834,543.841858 
	C462.892731,543.829895 349.942596,543.834656 236.992493,543.841614 
	C235.161194,543.841736 233.327164,543.888123 231.499008,543.993103 
	C216.196457,544.871521 203.716858,559.609680 205.414520,574.777649 
	C207.211777,590.835571 219.118988,600.986084 236.345169,600.988831 
	C349.628479,601.006592 462.911774,601.000732 576.195068,600.979614 
	C578.686707,600.979126 581.178406,600.704346 584.502319,600.351501 
M419.500305,658.510620 
	C359.201355,658.510620 298.902405,658.506775 238.603455,658.524231 
	C236.109741,658.524963 233.608795,658.638489 231.123596,658.846985 
	C213.733612,660.306091 201.485397,678.159546 206.341660,694.926208 
	C210.076691,707.821655 221.559128,715.986572 236.186325,715.988770 
	C349.621674,716.005371 463.057037,715.998779 576.492371,715.990601 
	C578.156311,715.990479 579.828308,715.962524 581.482910,715.804443 
	C599.166443,714.114624 611.209351,696.078064 606.000183,679.118530 
	C601.889954,665.737183 591.250488,658.525269 575.412048,658.518677 
	C523.774780,658.497253 472.137573,658.510620 419.500305,658.510620 
M510.500000,180.001175 
	C501.173279,180.006516 491.843903,179.875610 482.520691,180.058792 
	C474.554504,180.215317 467.380219,182.868515 462.048676,188.925110 
	C453.828094,198.263626 451.889160,208.984360 456.929199,220.459610 
	C461.856476,231.678070 471.021027,236.931442 483.038910,237.109497 
	C496.360016,237.306885 509.686157,237.181839 523.010071,237.161163 
	C542.328552,237.131210 561.653137,237.348572 580.963440,236.925827 
	C594.696411,236.625214 606.246582,224.843399 607.004456,211.364792 
	C608.031128,193.105850 595.919739,180.136688 577.453491,180.031143 
	C555.469666,179.905472 533.484558,180.001297 510.500000,180.001175 
M454.778961,318.473389 
	C452.292145,337.460938 464.539124,351.795715 483.777802,352.125793 
	C495.768768,352.331543 507.766083,352.165741 519.760559,352.165924 
	C538.585205,352.166229 557.410156,352.111542 576.234436,352.189484 
	C585.314819,352.227051 593.457153,349.808105 599.611816,342.928040 
	C607.522827,334.084717 609.467896,323.700958 605.028503,312.756500 
	C600.591919,301.818909 592.056152,295.192535 580.131592,295.061066 
	C547.318787,294.699219 514.498413,294.757416 481.683380,294.986359 
	C468.438263,295.078735 458.793610,303.664368 454.778961,318.473389 
z"/>
<path fill="#FEFEFE" opacity="1.000000" stroke="none" 
	d="
M856.167786,440.000092 
	C856.167786,540.825317 856.134277,641.150513 856.190308,741.475708 
	C856.205200,768.121216 845.663940,789.100891 822.504700,802.597046 
	C779.066040,827.911194 723.983643,797.770569 722.464355,747.511475 
	C721.472839,714.714478 722.319702,681.861816 722.345886,649.034119 
	C722.347351,647.201355 722.388245,645.368591 722.388306,643.535828 
	C722.390381,516.712769 722.390137,389.889740 722.390137,263.066711 
	C722.390137,261.091187 722.390137,259.115662 722.390137,256.492859 
	C724.473511,256.492859 726.243774,256.492859 728.014099,256.492859 
	C766.177673,256.492828 804.341248,256.489197 842.504822,256.495148 
	C853.341858,256.496826 856.165161,259.292480 856.165894,270.013916 
	C856.169922,326.509308 856.167786,383.004669 856.167786,440.000092 
z"/>
<path fill="var(--my-color)" opacity="1.000000" stroke="none" 
	d="
M415.831604,229.000122 
	C415.831604,259.658875 415.738647,289.818024 415.867828,319.976257 
	C415.940857,337.021912 410.201019,351.178192 396.373627,361.640045 
	C389.169952,367.090393 381.161743,370.779907 372.072784,370.884308 
	C347.916382,371.161896 323.756134,371.135956 299.597351,371.152771 
	C282.936462,371.164368 266.262573,371.438141 249.617752,370.889435 
	C227.350754,370.155426 207.590225,351.233856 206.034515,329.037170 
	C205.104782,315.771973 205.259933,302.420502 205.201553,289.106628 
	C205.088287,263.280579 205.092178,237.453323 205.202744,211.627228 
	C205.252945,199.902878 207.971848,188.966980 215.398880,179.467529 
	C225.497925,166.550446 238.965485,160.973969 254.987549,160.854340 
	C268.483246,160.753571 281.980347,160.833450 295.476807,160.833466 
	C318.970642,160.833481 342.464905,160.748459 365.958221,160.857162 
	C390.190186,160.969284 408.973083,174.649551 414.207489,197.690475 
	C416.452667,207.573303 415.390869,218.207397 415.831604,229.000122 
M358.510681,306.381073 
	C358.510681,277.110138 358.510681,247.839233 358.510681,218.518463 
	C326.377686,218.518463 294.697632,218.518463 263.043274,218.518463 
	C263.043274,250.453766 263.043274,282.034912 263.043274,313.808533 
	C294.839264,313.808533 326.422241,313.808533 358.510651,313.808533 
	C358.510651,311.596893 358.510651,309.470581 358.510681,306.381073 
z"/>
<path fill="var(--my-color)" opacity="1.000000" stroke="none" 
	d="
M560.999878,486.164703 
	C452.726227,486.164703 344.952454,486.096405 237.179031,486.255859 
	C224.481918,486.274658 214.909119,481.699890 208.658340,470.648132 
	C198.870560,453.342712 211.731796,430.092499 231.639389,428.985168 
	C233.301483,428.892700 234.968201,428.841431 236.632782,428.841339 
	C349.736816,428.834747 462.841095,428.952240 575.944580,428.707703 
	C592.664856,428.671539 603.542236,439.192932 606.483337,450.793213 
	C610.688599,467.379761 598.044556,485.121552 580.982483,485.973907 
	C574.501343,486.297668 567.994812,486.115997 560.999878,486.164703 
z"/>
<path fill="var(--my-color)" opacity="1.000000" stroke="none" 
	d="
M584.086182,600.454529 
	C581.178406,600.704346 578.686707,600.979126 576.195068,600.979614 
	C462.911774,601.000732 349.628479,601.006592 236.345169,600.988831 
	C219.118988,600.986084 207.211777,590.835571 205.414520,574.777649 
	C203.716858,559.609680 216.196457,544.871521 231.499008,543.993103 
	C233.327164,543.888123 235.161194,543.841736 236.992493,543.841614 
	C349.942596,543.834656 462.892731,543.829895 575.842834,543.841858 
	C591.087097,543.843445 600.978455,550.204041 605.528198,562.745361 
	C610.688110,576.968750 603.779114,596.096924 584.086182,600.454529 
z"/>
<path fill="var(--my-color)" opacity="1.000000" stroke="none" 
	d="
M420.000305,658.510620 
	C472.137573,658.510620 523.774780,658.497253 575.412048,658.518677 
	C591.250488,658.525269 601.889954,665.737183 606.000183,679.118530 
	C611.209351,696.078064 599.166443,714.114624 581.482910,715.804443 
	C579.828308,715.962524 578.156311,715.990479 576.492371,715.990601 
	C463.057037,715.998779 349.621674,716.005371 236.186325,715.988770 
	C221.559128,715.986572 210.076691,707.821655 206.341660,694.926208 
	C201.485397,678.159546 213.733612,660.306091 231.123596,658.846985 
	C233.608795,658.638489 236.109741,658.524963 238.603455,658.524231 
	C298.902405,658.506775 359.201355,658.510620 420.000305,658.510620 
z"/>
<path fill="var(--my-color)" opacity="1.000000" stroke="none" 
	d="
M511.000000,180.001160 
	C533.484558,180.001297 555.469666,179.905472 577.453491,180.031143 
	C595.919739,180.136688 608.031128,193.105850 607.004456,211.364792 
	C606.246582,224.843399 594.696411,236.625214 580.963440,236.925827 
	C561.653137,237.348572 542.328552,237.131210 523.010071,237.161163 
	C509.686157,237.181839 496.360016,237.306885 483.038910,237.109497 
	C471.021027,236.931442 461.856476,231.678070 456.929199,220.459610 
	C451.889160,208.984360 453.828094,198.263626 462.048676,188.925110 
	C467.380219,182.868515 474.554504,180.215317 482.520691,180.058792 
	C491.843903,179.875610 501.173279,180.006516 511.000000,180.001160 
z"/>
<path fill="var(--my-color)" opacity="1.000000" stroke="none" 
	d="
M454.831879,318.061035 
	C458.793610,303.664368 468.438263,295.078735 481.683380,294.986359 
	C514.498413,294.757416 547.318787,294.699219 580.131592,295.061066 
	C592.056152,295.192535 600.591919,301.818909 605.028503,312.756500 
	C609.467896,323.700958 607.522827,334.084717 599.611816,342.928040 
	C593.457153,349.808105 585.314819,352.227051 576.234436,352.189484 
	C557.410156,352.111542 538.585205,352.166229 519.760559,352.165924 
	C507.766083,352.165741 495.768768,352.331543 483.777802,352.125793 
	C464.539124,351.795715 452.292145,337.460938 454.831879,318.061035 
z"/>
<path fill="#FDFDFD" opacity="1.000000" stroke="none" 
	d="
M358.510681,306.862671 
	C358.510651,309.470581 358.510651,311.596893 358.510651,313.808533 
	C326.422241,313.808533 294.839264,313.808533 263.043274,313.808533 
	C263.043274,282.034912 263.043274,250.453766 263.043274,218.518463 
	C294.697632,218.518463 326.377686,218.518463 358.510681,218.518463 
	C358.510681,247.839233 358.510681,277.110138 358.510681,306.862671 
z"/>
</svg>