<?xml version="1.0" encoding="utf-8"?>
<!-- Generator: Adobe Illustrator 25.4.1, SVG Export Plug-In . SVG Version: 6.00 Build 0)  -->
<svg version="1.1" id="Layer_1" xmlns="http://www.w3.org/2000/svg" xmlns:xlink="http://www.w3.org/1999/xlink" x="0px" y="0px"
	 viewBox="0 0 198.425 51.024" style="enable-background:new 0 0 198.425 51.024;" xml:space="preserve">
<style type="text/css">
	.st0{fill:#969696;}
	.st1{fill:#474747;}
	.st2{fill:#5F259F;}
	.st3{fill:#BB16A3;}
</style>
<g>
	<g>
		<path class="st0" d="M120.864,41.8c0,0.747-0.278,1.323-0.835,1.729s-1.338,0.607-2.344,0.607c-1.064,0-1.895-0.168-2.49-0.505
			v-1.128c0.386,0.195,0.8,0.349,1.242,0.461c0.441,0.112,0.867,0.169,1.277,0.169c0.635,0,1.123-0.102,1.465-0.305
			c0.342-0.202,0.513-0.511,0.513-0.926c0-0.312-0.135-0.58-0.406-0.803c-0.271-0.222-0.8-0.484-1.586-0.787
			c-0.747-0.278-1.277-0.521-1.593-0.729c-0.314-0.207-0.549-0.443-0.703-0.707c-0.153-0.264-0.23-0.578-0.23-0.944
			c0-0.654,0.266-1.171,0.798-1.55c0.532-0.378,1.263-0.567,2.19-0.567c0.864,0,1.709,0.176,2.534,0.527l-0.433,0.989
			c-0.806-0.332-1.535-0.498-2.189-0.498c-0.576,0-1.011,0.09-1.304,0.271s-0.439,0.43-0.439,0.747c0,0.215,0.055,0.398,0.165,0.55
			c0.109,0.151,0.286,0.295,0.53,0.432s0.713,0.335,1.406,0.594c0.952,0.347,1.596,0.695,1.931,1.047
			C120.697,40.825,120.864,41.267,120.864,41.8z"/>
		<path class="st0" d="M121.943,35.962h1.304l1.758,4.578c0.386,1.045,0.625,1.799,0.718,2.263h0.059
			c0.063-0.249,0.196-0.675,0.399-1.278c0.202-0.603,0.865-2.457,1.988-5.562h1.304l-3.449,9.141
			c-0.342,0.903-0.741,1.544-1.198,1.923c-0.456,0.378-1.017,0.567-1.681,0.567c-0.371,0-0.737-0.041-1.099-0.124v-0.975
			c0.269,0.059,0.569,0.088,0.901,0.088c0.835,0,1.431-0.469,1.787-1.406l0.446-1.143L121.943,35.962z"/>
		<path class="st0" d="M136.148,41.8c0,0.747-0.278,1.323-0.835,1.729s-1.338,0.607-2.344,0.607c-1.064,0-1.895-0.168-2.49-0.505
			v-1.128c0.386,0.195,0.799,0.349,1.241,0.461c0.441,0.112,0.868,0.169,1.278,0.169c0.635,0,1.123-0.102,1.465-0.305
			c0.342-0.202,0.513-0.511,0.513-0.926c0-0.312-0.136-0.58-0.407-0.803c-0.271-0.222-0.799-0.484-1.585-0.787
			c-0.747-0.278-1.278-0.521-1.594-0.729c-0.314-0.207-0.549-0.443-0.703-0.707c-0.153-0.264-0.23-0.578-0.23-0.944
			c0-0.654,0.267-1.171,0.799-1.55c0.532-0.378,1.262-0.567,2.189-0.567c0.864,0,1.709,0.176,2.534,0.527l-0.432,0.989
			c-0.806-0.332-1.536-0.498-2.19-0.498c-0.576,0-1.011,0.09-1.304,0.271s-0.439,0.43-0.439,0.747c0,0.215,0.055,0.398,0.165,0.55
			c0.109,0.151,0.287,0.295,0.531,0.432s0.713,0.335,1.406,0.594c0.952,0.347,1.595,0.695,1.93,1.047
			C135.98,40.825,136.148,41.267,136.148,41.8z"/>
		<path class="st0" d="M141.003,43.133c0.215,0,0.422-0.016,0.622-0.048c0.2-0.031,0.359-0.064,0.477-0.099v0.93
			c-0.132,0.063-0.326,0.116-0.582,0.157c-0.257,0.042-0.487,0.062-0.692,0.062c-1.553,0-2.329-0.817-2.329-2.453v-4.775h-1.15
			v-0.586l1.15-0.506l0.513-1.714h0.703v1.86h2.329v0.945h-2.329v4.724c0,0.483,0.114,0.854,0.344,1.113
			S140.603,43.133,141.003,43.133z"/>
		<path class="st0" d="M146.951,44.136c-1.187,0-2.123-0.361-2.81-1.084c-0.686-0.723-1.028-1.726-1.028-3.01
			c0-1.294,0.318-2.322,0.955-3.084c0.638-0.762,1.493-1.143,2.567-1.143c1.006,0,1.802,0.331,2.388,0.992
			c0.586,0.662,0.879,1.535,0.879,2.619v0.769h-5.529c0.024,0.942,0.262,1.658,0.714,2.146c0.451,0.488,1.088,0.732,1.908,0.732
			c0.864,0,1.719-0.181,2.563-0.542v1.084c-0.43,0.186-0.837,0.318-1.22,0.398C147.955,44.096,147.493,44.136,146.951,44.136z
			 M146.621,36.834c-0.645,0-1.158,0.21-1.542,0.63c-0.383,0.42-0.608,1.001-0.677,1.743h4.196c0-0.767-0.171-1.354-0.513-1.762
			C147.744,37.038,147.256,36.834,146.621,36.834z"/>
		<path class="st0" d="M162.142,43.989v-5.222c0-0.64-0.137-1.119-0.41-1.439c-0.273-0.319-0.698-0.479-1.274-0.479
			c-0.757,0-1.316,0.217-1.678,0.651s-0.542,1.104-0.542,2.007v4.482h-1.216v-5.222c0-0.64-0.137-1.119-0.41-1.439
			c-0.273-0.319-0.7-0.479-1.281-0.479c-0.762,0-1.32,0.229-1.674,0.685c-0.354,0.457-0.531,1.205-0.531,2.245v4.211h-1.216v-8.027
			h0.989l0.197,1.099h0.059c0.229-0.391,0.553-0.695,0.971-0.915c0.417-0.22,0.885-0.33,1.402-0.33c1.255,0,2.075,0.454,2.461,1.362
			h0.059c0.239-0.42,0.586-0.752,1.04-0.996s0.972-0.366,1.553-0.366c0.908,0,1.588,0.233,2.04,0.699
			c0.451,0.467,0.678,1.213,0.678,2.238v5.236H162.142z"/>
		<path class="st0" d="M170.939,41.8c0,0.747-0.278,1.323-0.835,1.729s-1.338,0.607-2.344,0.607c-1.064,0-1.895-0.168-2.49-0.505
			v-1.128c0.386,0.195,0.799,0.349,1.241,0.461c0.441,0.112,0.868,0.169,1.278,0.169c0.635,0,1.123-0.102,1.465-0.305
			c0.342-0.202,0.513-0.511,0.513-0.926c0-0.312-0.136-0.58-0.407-0.803c-0.271-0.222-0.799-0.484-1.585-0.787
			c-0.747-0.278-1.278-0.521-1.594-0.729c-0.314-0.207-0.549-0.443-0.703-0.707c-0.153-0.264-0.23-0.578-0.23-0.944
			c0-0.654,0.267-1.171,0.799-1.55c0.532-0.378,1.262-0.567,2.189-0.567c0.864,0,1.709,0.176,2.534,0.527l-0.432,0.989
			c-0.806-0.332-1.536-0.498-2.19-0.498c-0.576,0-1.011,0.09-1.304,0.271s-0.439,0.43-0.439,0.747c0,0.215,0.055,0.398,0.165,0.55
			c0.109,0.151,0.287,0.295,0.531,0.432s0.713,0.335,1.406,0.594c0.952,0.347,1.595,0.695,1.93,1.047
			C170.771,40.825,170.939,41.267,170.939,41.8z"/>
	</g>
	<g>
		<path class="st1" d="M63.374,6.97c4.433,0,6.853,1.572,6.853,5.847c0,3.489-1.603,4.212-2.578,4.621
			c2.766,1.069,3.458,3.206,3.458,5.564c0,3.709-1.697,6.507-7.922,6.507H52.371V6.97H63.374z M57.024,10.837v4.998h5.219
			c2.798,0,3.489-0.346,3.489-2.672c0-1.886-0.44-2.326-4.37-2.326H57.024z M57.024,19.702v5.942h4.181
			c4.244,0,5.187-0.314,5.187-2.892c0-2.703-0.88-3.049-4.275-3.049H57.024z"/>
		<path class="st1" d="M72.943,6.97h4.37v22.54h-4.37V6.97z"/>
		<path class="st1" d="M90.914,27.749c-1.132,1.823-3.175,2.169-5.124,2.169c-3.992,0-5.722-1.478-5.722-6.224V12.943h4.37v10.468
			c0,2.232,0.691,2.924,2.892,2.924c2.295,0,3.332-0.755,3.332-3.835v-9.557h4.369V29.51h-4.118V27.749z"/>
		<path class="st1" d="M112.513,24.763c-0.534,3.804-3.049,5.156-7.545,5.156c-5.124,0-7.922-1.76-7.922-8.865
			c0-4.747,1.258-8.519,8.111-8.519c5.816,0,7.545,2.704,7.545,9.903h-11.16c0.157,3.144,0.943,3.898,3.395,3.898
			c1.666,0,2.672-0.314,3.112-1.572H112.513z M108.331,19.67c-0.188-3.018-1.383-3.552-3.395-3.552c-2.547,0-3.206,0.88-3.364,3.552
			H108.331z"/>
		<path class="st1" d="M114.958,6.97h4.37v7.419c0.723-0.912,2.012-1.855,4.873-1.855c4.936,0,6.885,2.798,6.885,8.488
			c0,6.287-2.358,8.865-6.947,8.897c-2.075,0-3.898-0.283-4.967-1.98v1.572h-4.213V6.97z M122.88,26.335
			c2.578,0,3.71-0.912,3.71-5.218c0-3.49-0.755-4.998-3.772-4.998c-2.484,0-3.615,1.006-3.615,5.061
			C119.202,25.58,120.522,26.335,122.88,26.335z"/>
		<path class="st1" d="M148.236,24.763c-0.534,3.804-3.049,5.156-7.545,5.156c-5.124,0-7.922-1.76-7.922-8.865
			c0-4.747,1.258-8.519,8.11-8.519c5.816,0,7.545,2.704,7.545,9.903h-11.16c0.157,3.144,0.943,3.898,3.395,3.898
			c1.666,0,2.672-0.314,3.112-1.572H148.236z M144.055,19.67c-0.189-3.018-1.383-3.552-3.395-3.552c-2.546,0-3.206,0.88-3.364,3.552
			H144.055z"/>
		<path class="st1" d="M150.709,29.51V12.943h4.118v2.075c1.006-1.729,2.106-2.421,4.275-2.421c0.786,0,1.132,0.094,1.132,0.094
			v4.181c0,0-0.503-0.094-1.383-0.094c-3.458,0-3.772,2.829-3.772,6.602v6.13H150.709z"/>
		<path class="st1" d="M162.102,29.51V12.943h4.118v2.075c1.006-1.729,2.106-2.421,4.275-2.421c0.786,0,1.132,0.094,1.132,0.094
			v4.181c0,0-0.503-0.094-1.383-0.094c-3.458,0-3.772,2.829-3.772,6.602v6.13H162.102z"/>
		<path class="st1" d="M177.511,12.943c0.817,4.024,2.043,8.048,3.678,12.072l3.615-12.072h4.59l-5.91,16.567
			c-1.855,5.25-2.483,6.664-6.507,6.664c-1.195,0-2.201-0.126-2.201-0.126v-3.426c0,0,0.409,0.063,0.723,0.063
			c1.697,0,2.861-0.189,3.395-2.735c-2.578-5.659-4.621-11.349-6.193-17.007H177.511z"/>
	</g>
	<g>
		<circle class="st2" cx="17.22" cy="35.631" r="8.189"/>
		<circle class="st3" cx="37.692" cy="15.159" r="8.189"/>
		<path class="st2" d="M37.692,27.442c-6.784,0-12.283-5.499-12.283-12.283c0-4.523-3.666-8.189-8.189-8.189
			s-8.189,3.666-8.189,8.189s3.666,8.189,8.189,8.189c6.784,0,12.283,5.499,12.283,12.283c0,4.523,3.666,8.189,8.189,8.189
			s8.189-3.666,8.189-8.189S42.215,27.442,37.692,27.442z"/>
	</g>
</g>
</svg>
